<?xml version="1.0" encoding="UTF-8"?>
<!DOCTYPE svg PUBLIC "-//W3C//DTD SVG 1.1//EN" "http://www.w3.org/Graphics/SVG/1.1/DTD/svg11.dtd">
<!-- Creator: CorelDRAW 2017 -->
<svg xmlns="http://www.w3.org/2000/svg" xml:space="preserve" width="800mm" height="600mm" version="1.1" style="shape-rendering:geometricPrecision; text-rendering:geometricPrecision; image-rendering:optimizeQuality; fill-rule:evenodd; clip-rule:evenodd"
viewBox="0 0 16429.48 12322.11"
 xmlns:xlink="http://www.w3.org/1999/xlink">
 <defs>
  <style type="text/css">
   <![CDATA[
    .fil1 {fill:#4A4A4A}
    .fil0 {fill:#FEFEFE}
   ]]>
  </style>
 </defs>
 <g id="Слой_x0020_1">
  <metadata id="CorelCorpID_0Corel-Layer"/>
  <rect class="fil0" width="16429.48" height="12322.11"/>
  <path class="fil1" d="M12904.96 2779.6c0,0 -1.56,-20.51 116.99,-50.55 118.55,-30.04 798.67,84.89 1074.02,680.1 275.36,595.21 231.52,1081.88 160.63,1625.05 -70.91,543.17 -217.67,999.72 -216.04,1151.36 1.61,151.64 74.6,634.36 6.68,956.26 -67.93,321.89 -138.57,596.97 -138.57,596.97 -489.63,-601.36 -182.22,-1062.75 -93.23,-1498.19 25.85,-126.51 134.26,-708 187.88,-990.04 53.62,-282.03 -37.54,-754.32 -37.54,-754.32 0,0 -110.86,1059.24 -249.86,1574.59 -138.99,515.34 -164.19,1160.61 -72.79,1364.81 91.4,204.21 262.77,356.41 233.53,522.51 -41.09,233.49 -349.83,757.28 -218.82,1634.88 16.63,111.39 29.47,160.39 9.55,211.48 -42.11,107.94 -144.17,241.08 -154.96,316.13 -10.8,75.05 47.72,247.94 -152.61,368.74 -200.32,120.8 -554.3,97.38 -743.88,55.71 -189.57,-41.69 -189.23,-134.92 -122.37,-264.55 66.86,-129.62 368.08,-366.14 433.41,-472.56 65.32,-106.41 88.43,-103.36 104.56,-347.09 37.16,-561.81 -127.51,-859.14 -331.96,-1330.01 -85.98,-198.02 -70.1,-173.66 -70.1,-173.66 0,0 -75.81,-704.4 66.4,-1003.88 142.2,-299.5 746.42,-1107.54 831.46,-1247.62 151.53,-249.64 281.23,-643.22 295.27,-895.5 0,0 -270.24,693.16 -571.95,1113.24 -183.42,255.37 -437.34,551.32 -598.55,913.68 -153.43,36.16 -414.49,57.14 -699.02,56.87 -242.12,-0.23 -500.43,-15.97 -723.11,-50.97 62.61,-245.52 100.12,-509.53 114.33,-782.81 24.41,-469.28 -19.87,-966.31 -123.52,-1444.01 100.17,-13.98 196.49,-31.95 281.6,-52.5 95.61,-23.09 177.66,-49.52 236.08,-77.4 93.6,-44.67 158.78,-119.05 189.26,-199.29 18.63,-49.06 24.39,-100.47 15.93,-149.04 -8.69,-49.87 -32.1,-96.52 -71.62,-134.56 -53.97,-51.95 -137.71,-87.02 -254.38,-90.07 -138.95,-3.63 -343.54,5.33 -555.42,26.06 -10.72,1.05 -21.45,2.13 -32.2,3.23 -11.91,-33.58 -24.12,-66.92 -36.63,-100.01 1356.87,8.59 2510.27,-84.05 2704.01,-100.53 18.49,-1.57 166.02,-12.71 166.37,-12.74l-20.87 -57.16 -14.65 -29.32c-0.37,0.03 -121,9.8 -141.35,11.52 -203.4,17.23 -1366.55,110.04 -2728,99.66 -61.93,-154.65 -130.65,-303.26 -205.76,-443.72 -100.72,-188.34 -212.83,-361.88 -335.32,-515.56 648.54,-28.62 1207.82,-11.55 1331.83,-61.09 137.69,-55 452.96,-63.29 642.92,-27.41 189.95,35.88 512.35,73.33 512.35,73.33zm-293.59 4156.07c-79.69,208.1 -126.28,437.4 -111.64,692.4 8.25,143.67 16.85,259.43 24.02,355.39 -155.75,83.36 -431.94,123.76 -709.06,97.61 -179.06,-16.9 -357.32,-61.72 -501.93,-140.84 -44.46,-338.69 -83.03,-525.45 -90.6,-734.74 -3.3,-91.14 -12.04,-170.49 -25.65,-241.06 3.52,-11.83 6.97,-23.71 10.36,-35.64 229.42,36.74 496.43,53.24 746.24,53.48 256.36,0.24 495.51,-16.75 658.26,-46.61zm-80.64 1142.7c23.01,323.14 14.18,387.73 -134.1,667.72 -199.8,377.28 -551.11,1018.45 -644.97,1291.99 -93.86,273.56 -152.61,368.74 -288.38,394.73 -135.76,26 -155.82,152.9 -166.99,233.75 -11.18,80.85 -72.57,304.1 -525.19,274.16 -452.62,-29.95 -576.49,-183.84 -576.49,-183.84l68.78 -158.64c0,0 30.12,-102.92 186.76,-179.98 156.63,-77.06 417.71,-147.21 498.91,-229.27 81.19,-82.05 211.4,-376.5 289.4,-674.41 77.22,-295.02 134.47,-1065.71 87.66,-1468.71 144.61,67.88 312.49,107.33 480.27,123.16 273.64,25.82 549.47,-11.42 724.35,-90.65zm-1380.58 -1280.42c-13.61,-36.05 -28.94,-69.63 -45.86,-101.48 -43.61,-82.11 -91.11,-142.5 -172.16,-186.29 82.4,99.97 140.92,261.68 170.62,385.8 0,0 -429.8,330 -818.88,484.93 -324.48,129.21 -444.5,231.39 -553.49,266.76 84.64,-216.47 148.05,-451.74 194.07,-692.88 87.43,-458.15 112.17,-938.29 100.5,-1350.44 485.5,-97.71 910.51,-214.42 1206.43,-370.55 29.77,277.18 38.59,554.17 24.67,821.91 -13.47,258.95 -48.22,509.11 -105.9,742.25zm-1519.75 861.86c-89.05,-11.58 -55.08,-104.28 -291.92,-172.42 -263.09,-75.68 -556.73,-130.07 -830.28,-223.94 -273.54,-93.86 -889.51,-297.8 -1279.44,-306.12 -389.94,-8.3 -403.85,25.75 -552.76,74.17 -102.42,33.31 -164.67,50.82 -215.71,65.47l-48.96 10.39c-40.61,8.63 -81.2,17.24 -121.79,25.69 102.28,-303.73 189.75,-605.75 263.18,-908.14 550.43,-163.26 1293.24,-273.56 2040.26,-384.48 460.73,-68.41 923.01,-137.08 1344.09,-218.73 10.49,403.14 -14.35,870.58 -99.51,1316.8 -48.23,252.74 -115.77,498.43 -207.15,721.3zm-2633.33 -568.98c-39.96,166.82 -141.7,567.7 -281.87,934.07 -176.17,460.43 -295.84,947.91 -288.02,1094.14 7.81,146.22 -65.29,546.46 -114.21,581.1 -48.92,34.65 -80.62,73.36 -64.92,144.33 15.71,70.98 5.3,140.23 -143.23,182.86 -148.53,42.63 -323.38,42.72 -456.46,28.09 -133.08,-14.64 -222.66,-70.11 -222.66,-70.11l21.82 -65.57c0,0 -100.94,28.29 -112.69,117.84 -11.76,89.56 -27.73,242.96 -137.96,279.38 -110.23,36.42 -515,120.37 -657.19,67.26 -142.19,-53.12 -152.28,-120.81 -152.28,-120.81 0,0 17.19,-39.66 83.51,-73.15 66.32,-33.5 169.2,-90.81 169.2,-90.81 0,0 -69.63,-4.6 -153.95,36.44 -84.31,41.05 -81.78,47.04 -81.78,47.04 0,0 -14.55,-88.4 59.11,-144.71 73.66,-56.32 200.52,-123.69 298.73,-198.8 98.22,-75.1 122.58,-90.98 122.58,-90.98 0,0 -12.01,-38.67 53.7,-150.89 65.7,-112.22 169.63,-599.29 174.95,-789.82 5.31,-190.53 -123.91,-615.8 -106.68,-964.35 14.59,-295.15 0.8,-477.25 -12.38,-609.85 494.69,160.23 963.96,60.54 1435.29,-39.6 188.49,-40.05 377.34,-80.17 567.39,-103.11zm-2094.6 -4.01c-4.62,-5.45 -9.56,-11.47 -15.02,-18.26 -55.89,-69.6 -184.38,-214.73 -359.32,-320.48 -238.17,-143.98 -258.72,-229.85 -317.65,-484.36 -58.94,-254.51 -81.91,-524.12 -284.37,-811.44 -14.41,-20.45 -27.72,-40.49 -40.15,-60.12l2.63 -4.97c190.97,15.5 516.38,26.15 911.15,-24.36 79.09,313.71 76.15,634.14 73.15,960.13 -2.32,250.89 -4.64,505.04 29.57,763.86zm-1074.16 -1793.85c-109.24,-204.44 -134.61,-350.07 -290.49,-402.56 -160.54,-54.06 -386.83,-20.53 -614.37,-73.91 385.47,-300.29 702.91,-905.17 1010.36,-1491.1 215.2,-410.1 425.43,-810.7 647.47,-1084.57 8.98,0.08 17.82,0.09 26.45,0.03 186.24,-1.36 501.28,111.22 1099.74,263.45 -135.34,210.29 -278.45,419.98 -424.39,628.49l-41.54 59.22c-103.53,147.27 -208.24,293.92 -312.36,439.75 -386.95,541.96 -765.84,1072.65 -1048.74,1584.55 -14.4,26.07 -28.52,51.97 -42.35,77.65l-9.79 -0.99zm-1010.52 -508.24c-11.87,-4.43 -23.72,-9.16 -35.53,-14.24 -272.01,-117.08 -390.59,-130.75 -420.22,-211.39 -29.63,-80.63 -124.83,-139.39 -211.48,-150.95 -86.65,-11.56 -158.97,24.45 -255.69,32.63 -96.71,8.17 -200.62,-94.87 -200.62,-94.87 0,0 -122.82,6.45 -209.51,-48.83 -86.68,-55.27 -158.49,-159.1 -207.09,-261.4 -48.6,-102.29 -23.48,-129.78 15.74,-237.92 39.2,-108.14 134.53,-183.43 189.44,-220.59 54.92,-37.16 110.97,-91.75 226.18,-247.31 115.2,-155.57 291.33,-307.1 372.1,-470.78 80.77,-163.67 255.89,-388.14 368.59,-505.98 112.71,-117.84 259.06,-259.7 330.01,-319.12 70.95,-59.42 196.97,-246.33 325.18,-290.3 128.22,-43.98 293.81,7.78 362.3,29.79 68.48,22.01 114.92,68.8 114.92,68.8 0,0 1.55,-1.37 -72.21,78.26 -73.75,79.64 -92.57,143.95 -83.78,143.08 8.8,-0.86 172.92,-191.08 284.4,-246.37 111.47,-55.28 215.75,-23.61 268.2,42.52 52.46,66.12 29.81,254.05 34.78,311.19 4.96,57.16 -32.48,28.46 -66.23,230.21 -33.74,201.76 -53.24,276.24 -88.8,329.24 -35.56,53.03 -66.09,118.02 -66.09,118.02 0,0 119.68,-91.16 172.2,-268.36 52.52,-177.2 78.57,-306.61 97.71,-331.58 19.13,-24.95 46.58,-43.54 46.58,-43.54 0,0 186.65,23.2 362.8,32.33 -212.22,277.59 -411.97,658.22 -616.11,1047.27 -317.35,604.78 -645.53,1230.12 -1037.78,1500.19zm2980.06 -2257.69l28.99 7.19c676.67,167.15 1396.91,424.6 2083.95,435.08 70.97,1.08 143.86,0.65 218.28,-1 7.33,13.97 18.9,36.04 21.66,41.61 58.84,118.66 95.13,237.83 117.7,352.74 20.69,105.32 29.96,206.85 34.47,301.22 -1019.3,-67.26 -2048.9,-200.33 -2933.08,-500.91 147.24,-210.73 291.56,-422.82 428.01,-635.93zm2429.69 438.42c624.38,-22.19 1345.03,-121.54 1972.9,-159.42 35.75,-2.16 71.35,-4.14 106.75,-5.98 22.39,26.86 44.9,53.91 49.55,59.79 116.15,147.12 222.65,312.68 318.56,492.03 68.06,127.28 130.84,261.59 188,401.28 -135.61,-1.51 -272.99,-4.06 -411.41,-7.86 -95.78,-2.62 -198.11,-5.3 -301.74,-8 -559.56,-14.59 -1156.46,-30.19 -1758.53,-67.73 -4.51,-101.4 -14.05,-210.77 -36.26,-323.88 -24.3,-123.7 -63.63,-252.15 -127.81,-380.24zm2712.29 987.19c-13.38,-37.25 -27.14,-74.19 -41.27,-110.8 -147.85,-1.45 -297.84,-4.11 -449.09,-8.25 -102.53,-2.81 -201.38,-5.39 -301.39,-7.99 -1037.01,-27.03 -2201.74,-57.46 -3293.25,-224.48 0.69,618.04 -43.09,1213.26 -136.75,1800.55 -38.66,242.45 -85.81,483.47 -141.79,724.13 550.38,-157.12 1275.13,-264.74 2003.89,-372.96 1043.83,-154.99 2095.93,-311.22 2640.26,-613.6 -21.38,-171.67 -50.72,-343.03 -87.61,-511.91 -78.49,8.91 -157.86,15.21 -234.72,18.26 -88.05,3.48 -172.73,2.8 -248.98,-2.98 -185.82,-14.09 -303.49,-77.8 -364.67,-159.25 -32.71,-43.54 -49.4,-91.99 -51.86,-141 -2.43,-48.36 9.19,-96.96 33.07,-141.52 46.36,-86.52 139.44,-158 265.23,-181.32 123,-27.46 265.27,-49.84 408.96,-66.89zm130.76 74.7c-181.13,17.73 -367.76,44.16 -522.24,78.75l-1.56 0.35c-97.59,18.09 -168.77,71.61 -203.25,135.96 -16.34,30.5 -24.3,63.4 -22.68,95.81 1.6,31.76 12.6,63.42 34.2,92.18 47.02,62.6 143.25,112 300.62,123.93 73.9,5.6 155.11,6.3 238.94,2.98 90.38,-3.58 183.96,-11.73 274.99,-23.34 110.95,-14.15 218.43,-33.52 312.03,-56.13 89.2,-21.54 165.26,-45.97 218.77,-71.5 72.07,-34.4 121.8,-90.48 144.59,-150.48 13.06,-34.39 17.18,-69.93 11.43,-102.99 -5.54,-31.76 -20.46,-61.49 -45.65,-85.74 -39.07,-37.61 -102.93,-63.09 -195.17,-65.49 -135.65,-3.55 -336.38,5.3 -545.03,25.72zm-6070.79 3114.24c406.11,137.08 798.19,89.36 1189.27,11.93 202.1,-591.3 347.49,-1174.71 441.74,-1765.7 6.76,-42.4 13.26,-84.86 19.5,-127.36 -269.06,-25.73 -570.24,-22.46 -871.29,-3.47 -308.9,19.49 -617.48,55.52 -891.25,93.81 79.44,321.39 76.47,644.34 73.44,972.85 -2.48,268.88 -4.99,541.57 38.6,817.93zm1663 -1968.77c71.56,-517.55 104.89,-1042.63 103.7,-1585.51 -507.04,-81.36 -996.96,-193.21 -1449.42,-349.05 -104.71,149 -210.59,297.29 -315.87,444.75 -385.25,539.58 -762.49,1067.94 -1043.2,1575.9 -7.99,14.45 -15.88,28.86 -23.69,43.19 200.03,14.05 524.77,20.07 913.96,-35.03 282.45,-39.99 603.59,-78.07 925.19,-98.35 306.74,-19.35 614.12,-22.55 889.33,4.11zm-5304.45 -1332.14c0,0 35.96,-58.83 59,-10.67 23.04,48.15 25.24,191.08 25.24,191.08 0,0 83.92,-35.24 83.31,-113.96 -0.62,-78.72 -23.68,-170.59 -102.59,-167.07 -78.92,3.52 -64.95,100.62 -64.95,100.62zm1256.1 -776.08c-41.85,29.94 -157.12,67.19 -220.96,22.58 0,0 -34.76,75.81 51.53,92.68 77.42,15.13 171.18,-30.32 169.44,-115.26z"/>
  <path class="fil1" d="M3933.81 3325.4c-307.44,585.9 -624.86,1190.81 -1010.31,1491.11 227.52,53.37 453.79,19.84 614.31,73.9 155.88,52.49 181.23,198.11 290.48,402.56 3.2,0.33 6.47,0.66 9.8,0.99 13.83,-25.68 27.95,-51.58 42.35,-77.65 282.89,-511.91 661.79,-1042.6 1048.74,-1584.55 104.12,-145.83 208.82,-292.49 312.36,-439.75l41.54 -59.22c145.93,-208.5 289.06,-418.19 424.39,-628.48 -598.48,-152.23 -913.49,-264.81 -1099.74,-263.45 -8.64,0.06 -17.49,0.05 -26.48,-0.02 -222.03,273.86 -432.25,674.48 -647.44,1084.56zm939.08 2997.57c3,-326 5.94,-646.42 -73.15,-960.13 -394.77,50.51 -720.18,39.86 -911.15,24.36 -0.88,1.66 -1.76,3.32 -2.64,4.99 12.42,19.63 25.76,39.67 40.16,60.11 202.46,287.32 225.43,556.93 284.37,811.44 58.93,254.52 79.47,340.38 317.65,484.36 174.93,105.75 303.43,250.88 359.32,320.48 5.45,6.78 10.39,12.8 15.01,18.25 -34.21,-258.81 -31.88,-512.96 -29.56,-763.85zm1316.16 830.56c202.1,-591.3 347.49,-1174.71 441.74,-1765.7 6.76,-42.4 13.26,-84.86 19.5,-127.36 -269.06,-25.73 -570.24,-22.46 -871.29,-3.47 -308.9,19.49 -617.48,55.52 -891.25,93.81 79.44,321.39 76.47,644.34 73.44,972.85 -2.48,268.88 -4.99,541.57 38.6,817.93 406.11,137.08 798.19,89.36 1189.27,11.93zm3747.99 -1531.8c-421.08,81.65 -883.36,150.32 -1344.09,218.73 -747.02,110.92 -1489.83,221.23 -2040.26,384.48 -73.42,302.39 -160.9,604.41 -263.18,908.14 40.59,-8.45 81.18,-17.06 121.79,-25.69 16.32,-3.47 32.65,-6.94 48.98,-10.39 51.04,-14.65 113.28,-32.16 215.7,-65.47 148.92,-48.42 162.83,-82.47 552.76,-74.17 389.93,8.32 1005.9,212.26 1279.44,306.12 273.55,93.87 567.19,148.26 830.28,223.94 236.86,68.15 202.83,160.87 291.91,172.44 91.38,-222.87 158.92,-468.57 207.15,-721.32 85.15,-446.22 110,-913.66 99.51,-1316.8zm718.63 -1067.39c73.9,5.6 155.11,6.3 238.94,2.98 90.38,-3.58 183.96,-11.73 274.99,-23.34 110.95,-14.15 218.43,-33.52 312.03,-56.13 89.2,-21.54 165.26,-45.97 218.77,-71.5 72.07,-34.4 121.8,-90.48 144.59,-150.48 13.06,-34.39 17.18,-69.93 11.43,-102.99 -5.54,-31.76 -20.46,-61.49 -45.65,-85.74 -39.07,-37.61 -102.93,-63.09 -195.17,-65.49 -135.65,-3.55 -336.38,5.3 -545.03,25.72 -181.13,17.73 -367.76,44.16 -522.24,78.75l-1.56 0.35c-97.59,18.09 -168.77,71.61 -203.25,135.96 -16.34,30.5 -24.3,63.4 -22.68,95.81 1.6,31.76 12.6,63.42 34.2,92.18 47.02,62.6 143.25,112 300.62,123.93zm-2075.52 1198.52c1043.83,-154.99 2095.93,-311.22 2640.26,-613.6 -21.38,-171.67 -50.72,-343.03 -87.61,-511.91 -78.49,8.91 -157.86,15.21 -234.72,18.26 -88.05,3.48 -172.73,2.8 -248.98,-2.98 -185.82,-14.09 -303.49,-77.8 -364.67,-159.25 -32.71,-43.54 -49.4,-91.99 -51.86,-141 -2.43,-48.36 9.19,-96.96 33.07,-141.52 46.36,-86.52 139.44,-158 265.23,-181.32 123,-27.46 265.27,-49.84 408.96,-66.89 -13.38,-37.25 -27.14,-74.19 -41.27,-110.8 -147.85,-1.45 -297.84,-4.11 -449.09,-8.25 -102.53,-2.81 -201.38,-5.39 -301.39,-7.99 -1037.01,-27.03 -2201.74,-57.46 -3293.25,-224.48 0.69,618.04 -43.09,1213.26 -136.75,1800.55 -38.66,242.45 -85.81,483.47 -141.79,724.13 550.38,-157.12 1275.13,-264.74 2003.89,-372.96zm2570 1045.11c57.67,-233.13 92.43,-483.3 105.9,-742.25 13.93,-267.74 5.1,-544.73 -24.67,-821.91 -295.92,156.14 -720.93,272.84 -1206.43,370.55 11.67,412.15 -13.07,892.29 -100.5,1350.44 -46.02,241.14 -109.43,476.42 -194.07,692.9 108.99,-35.36 229.01,-137.56 553.49,-266.77 389.09,-154.94 818.88,-484.93 818.88,-484.93 -29.7,-124.11 -88.22,-285.83 -170.62,-385.8 81.05,43.79 128.55,104.18 172.16,186.29 16.92,31.85 32.25,65.43 45.86,101.47zm1461.15 137.73c-162.75,29.86 -401.87,46.84 -658.19,46.6 -249.81,-0.24 -516.82,-16.73 -746.24,-53.48 -3.39,11.93 -6.84,23.8 -10.36,35.63 13.61,70.56 22.35,149.93 25.65,241.07 7.57,209.3 46.14,396.04 90.6,734.76 144.61,79.12 322.87,123.92 501.93,140.82 277.11,26.15 553.31,-14.24 709.06,-97.6 -7.16,-95.95 -15.77,-211.76 -24.02,-355.4 -14.64,-254.98 31.9,-484.3 111.57,-692.38zm739.28 -1162.37c249.52,-401.36 456.44,-923.37 471.22,-960.97 86.13,-356.76 88.8,-718.43 42.03,-1083 -973.68,81.79 -1928.73,114.99 -2870.38,113.27 10.65,30.82 25.4,68.34 36.63,100.01 10.75,-1.11 21.48,-2.18 32.2,-3.23 211.88,-20.74 416.47,-29.69 555.42,-26.06 116.67,3.05 200.41,38.12 254.38,90.07 39.52,38.04 62.93,84.69 71.62,134.56 8.46,48.57 2.7,99.98 -15.93,149.04 -30.48,80.24 -95.65,154.62 -189.26,199.29 -58.43,27.88 -140.47,54.31 -236.08,77.4 -85.11,20.55 -181.43,38.52 -281.6,52.5 103.65,477.7 147.93,974.73 123.52,1444.01 -14.21,273.27 -51.72,537.28 -114.33,782.81 477.77,65.95 952.18,70.92 1422.11,-5.89 161.21,-362.36 415.16,-658.31 598.58,-913.68 6.15,-8.57 12.29,-17.24 18.42,-26.03 27.16,-41.36 54.32,-82.73 81.48,-124.09zm492.38 -2101.13c-170.48,-341.83 -516.83,-769.14 -937.99,-892.59 0,0 -322.39,-37.46 -512.35,-73.33 -189.97,-35.88 -505.24,-27.6 -642.92,27.41 -124.01,49.54 -683.28,32.46 -1331.83,61.08 122.5,153.68 234.6,327.23 335.33,515.57 75.11,140.46 151.11,318.4 213.03,473.04l2876.73 -111.17zm-5615.42 -706.72c64.17,128.08 103.51,256.53 127.8,380.22 22.22,113.1 31.75,222.48 36.26,323.88 602.07,37.55 1198.97,53.15 1758.53,67.73 103.62,2.7 205.96,5.37 301.74,8 138.43,3.79 275.8,6.35 411.41,7.86 -57.16,-139.69 -119.94,-274.01 -188,-401.28 -95.91,-179.35 -202.41,-344.91 -318.56,-492.03 -4.65,-5.88 -27.15,-32.93 -49.55,-59.79 -35.4,1.84 -71,3.82 -106.75,5.98 -627.84,37.88 -1348.52,137.24 -1972.89,159.43zm-2857.71 197.49c884.17,300.58 1913.78,433.65 2933.08,500.91 -4.51,-94.37 -13.78,-195.9 -34.47,-301.22 -22.57,-114.91 -58.87,-234.08 -117.7,-352.74 -2.76,-5.57 -14.32,-27.61 -21.65,-41.59 -74.44,1.65 -147.32,2.06 -218.29,0.97 -687.04,-10.48 -1407.29,-267.93 -2083.95,-435.08 -9.73,-2.4 -19.39,-4.8 -28.99,-7.19 -136.45,213.1 -280.78,425.2 -428.01,635.92zm-368.63 520.03c-385.25,539.58 -762.49,1067.94 -1043.2,1575.9 -7.99,14.45 -15.88,28.86 -23.69,43.19 200.03,14.05 524.77,20.07 913.96,-35.03 282.45,-39.99 603.59,-78.07 925.19,-98.35 306.74,-19.35 614.12,-22.55 889.33,4.11 71.56,-517.55 104.89,-1042.63 103.7,-1585.51 -507.04,-81.36 -996.96,-193.21 -1449.42,-349.05 -104.71,149 -210.59,297.29 -315.87,444.75z"/>
  <path class="fil1" d="M3053.99 4780.9c67.76,8.27 136.05,11.55 204.55,14.85 97.4,4.68 204.72,8.86 297.63,40.15 43.14,14.53 81.46,36.39 115.02,67.23 48.29,44.38 80.71,101.84 109.39,160.06 18.91,38.38 36.62,77.08 54.92,115.56 147.6,-266.11 312.45,-523.49 482.62,-775.62 183.28,-271.55 373.9,-538.18 564.25,-804.79 104.38,-146.2 208.91,-292.31 312.08,-439.37l41.55 -59.22c129.46,-184.54 256.73,-370.71 379.76,-559.62 -107.42,-27.84 -214.57,-56.62 -321.61,-85.93 -101.94,-27.92 -203.76,-56.48 -305.91,-83.63 -74.41,-19.78 -149.74,-39.29 -225.31,-54.09 -49.7,-9.73 -103.27,-18.41 -154.06,-18.12 -113.65,143.71 -212.78,304.32 -304.09,462.43 -112.02,193.98 -215.95,392.99 -320.03,591.32 -25.53,48.65 -51.06,97.31 -76.69,145.91 -138.55,262.7 -280.62,527.37 -443.48,775.9 -115.89,176.84 -251.81,360.33 -410.58,506.98zm1701.71 645.27c-250.21,29.25 -507.71,39.19 -760.13,25.83 82.91,125.19 140.48,256.97 181.88,402.58 37.21,130.87 58.46,263.98 89.07,396.17 56.06,242.11 70.18,314.4 291.37,448.12 96.09,58.08 187.83,132.96 269.12,215.46 -14.76,-196.84 -13.46,-393.94 -11.62,-591.89 2.76,-299.42 6.09,-602.67 -59.68,-896.26zm202.26 -26.98c65.8,305.22 63.62,613.39 60.74,925 -2.38,258.84 -4.22,517.02 32.66,773.69 365.63,114.28 724.65,76.93 1093.96,5.59 190.5,-562.82 335.06,-1137.72 428.67,-1724.7 3.52,-22.1 6.98,-44.2 10.36,-66.32 -265.2,-21 -537.2,-14.73 -801.73,1.96 -275.65,17.39 -550.93,47.57 -824.67,84.79zm1642.74 871.61c-65.11,264.53 -140.39,526.44 -225.05,785.36 7.91,-1.68 15.81,-3.36 23.72,-5.04 15.67,-3.33 31.33,-6.66 47,-9.97 71.1,-20.43 141.44,-41.43 211.83,-64.33 34.86,-11.34 68.87,-24.65 103.56,-36.35 54.19,-18.28 105.19,-28.41 162.14,-34.13 100.07,-10.05 205.63,-8.64 306.08,-6.5 94.39,2.01 189.98,14.09 283,29.8 103.28,17.46 205.93,40.15 307.55,65.49 238.53,59.49 473.86,134.15 706.34,213.93 270.8,92.92 552.9,144.06 827.51,223.07 71.19,20.48 143.4,49.51 200.44,97.97 16.43,13.95 30.62,28.87 44.99,44.84 0.54,0.61 1.09,1.23 1.66,1.86 80.34,-209.34 137.66,-429.4 179.58,-649.05 76.96,-403.27 106.64,-825.45 99.94,-1236.72 -424.23,80.27 -852.63,142.93 -1279.58,206.32 -364.48,54.12 -729.42,107.85 -1092.23,172.35 -303.45,53.95 -611.96,115.2 -908.48,201.11zm4059.32 -1773.83c77.06,5.84 155.13,5.92 232.31,2.86 90.19,-3.57 180.46,-11.5 269.99,-22.93 102.43,-13.07 205.41,-30.74 305.81,-54.98 67.88,-16.39 144.34,-37.37 207.5,-67.51 50.78,-24.23 95.35,-65.68 115.6,-118.99 8.71,-22.93 12.77,-48.35 8.53,-72.7 -3.67,-21.04 -13.47,-39.34 -28.88,-54.18 -39.03,-37.58 -105.01,-48.08 -156.78,-49.43 -80.09,-2.09 -160.97,0.12 -240.98,3.83 -99.1,4.59 -198.21,11.97 -296.95,21.63 -171.51,16.79 -347.08,40.25 -515.37,77.65l-2.55 0.57 -1 0.18c-64.75,12 -130.95,46.69 -163.04,106.57 -10.8,20.15 -17.08,42.8 -15.93,65.77 1.12,22.34 9.37,42.71 22.74,60.51 53.9,71.75 175.86,94.83 258.98,101.13zm200.84 -592.46c-0.7,-1.86 -1.4,-3.71 -2.1,-5.57 -136.98,-1.54 -273.95,-4.11 -410.89,-7.86 -100.44,-2.75 -200.88,-5.38 -301.32,-7.99 -737.98,-19.24 -1475.95,-39.57 -2211.95,-100.19 -341.75,-28.15 -683.11,-64.87 -1022.39,-114.99 -2.43,584 -45.34,1165.77 -137.37,1742.82 -33.89,212.51 -74.29,423.94 -121.12,633.97 278.39,-74.6 564.53,-130.51 847.61,-180.37 355.64,-62.64 713.19,-115.35 1070.36,-168.39 501.72,-74.5 1007.56,-147.41 1504.15,-250.94 212.2,-44.24 425.02,-94.61 632.07,-159.04 151.95,-47.29 308.53,-104.06 450.41,-178.57 -18.42,-139.94 -42.11,-279.23 -70.97,-417.4 -62.2,6.14 -124.6,10.6 -187.02,13.07 -84.93,3.36 -170.82,3.33 -255.61,-3.1 -147.98,-11.22 -313.06,-57.92 -406.31,-182.05 -37.92,-50.48 -60.15,-109.51 -63.32,-172.67 -3,-59.87 11.56,-118.84 39.82,-171.57 61.53,-114.83 178.41,-186.88 304.39,-210.5 112.3,-25.03 227.08,-43.68 341.55,-58.66zm268.77 2720.34c37.15,-188.57 59.01,-380.64 68.97,-572.14 12.64,-243.01 6.22,-487.66 -16.16,-730.1 -149.4,71.09 -309.6,126.54 -466.73,173.48 -207.51,61.98 -419.8,111.46 -632.07,155.02 9.41,436.63 -20.92,885.91 -102.7,1314.46 -36.7,192.33 -84.7,384.24 -148.3,570.04 22.05,-12.13 43.99,-24.49 66.03,-36.56 118.71,-65.03 238.05,-121.45 363.91,-171.57 68.84,-27.41 136.17,-59.16 201.98,-93.16 144.36,-74.57 284.44,-161.13 418.86,-252.38 51.67,-35.07 103.78,-71.29 154.15,-108.81 -29.84,-110.37 -81,-242.87 -149.83,-326.37l-187.19 -227.08 258.91 139.89c76.42,41.29 127.38,95.84 170.17,165.28zm1395.23 382.69c-67.64,9.1 -135.98,15.32 -203.51,20.1 -122.45,8.68 -245.56,12.27 -368.3,12.16 -228.89,-0.22 -465.14,-12.37 -692.75,-44.75 11.02,68.89 16.82,138.74 19.34,208.37 0.86,23.83 2.15,47.64 3.82,71.43 6.66,94.67 19.46,188.86 32.99,282.75 16.6,115.23 33.92,230.22 49.41,345.59 138.65,69.94 301.18,106.18 454.23,120.62 187.85,17.73 461.44,6.98 643.43,-74.82 -7.8,-105.84 -15.13,-211.64 -21.21,-317.62 -12.32,-214.57 16.91,-421.9 82.56,-623.82zm-719.79 -3114.86c39.12,16.43 75.48,39.06 106.88,69.29 46.81,45.07 77.26,102.2 88.39,166.13 10.51,60.34 2.85,122.27 -18.82,179.34 -38.93,102.51 -119.95,183.86 -218.25,230.78 -76.23,36.38 -165.4,61.61 -247.36,81.4 -74.54,18 -150.27,32.57 -226.17,44.51 94.19,456.9 136.24,933.68 112.03,1399.07 -12.76,245.41 -44.28,491.68 -100.64,731.21 436.53,55.25 875.99,58.61 1311.37,-9.21 77.99,-168.76 176.53,-326.33 283.55,-478.17 99.67,-141.42 207.08,-276.74 307.91,-417.13 5.89,-8.2 11.72,-16.44 17.49,-24.72 26.88,-40.94 53.76,-81.88 80.64,-122.82 35.11,-56.51 68.56,-114.07 100.79,-172.27 92.17,-166.37 175.51,-338.81 252.84,-512.56 38.52,-86.55 76.32,-174.32 111.07,-262.51 79.32,-330.97 85.05,-667.36 46.59,-1003.76 -668.35,54.92 -1338.06,87.73 -2008.32,101.43zm1088.31 -1056.53c-107.98,-12.61 -216.14,-26.82 -323.67,-42.63 -62.68,-9.21 -125.52,-18.99 -187.77,-30.74 -86.32,-16.31 -180.48,-21.1 -268.23,-20.67 -98.21,0.47 -251.17,8.42 -342.68,44.97 -51.19,20.45 -131.42,26.38 -186.38,30.37 -100.48,7.3 -202.11,9.76 -302.83,12.1 -250.47,5.83 -500.54,9.08 -750.84,18.21 101.75,137.9 192.24,284.53 272.93,435.43 75.45,141.09 140.34,292.17 200.56,441.13l2744.91 -106.08c-183.15,-327.83 -498.22,-675.05 -856,-782.09zm-4577.48 183.32c43.18,101.24 74.56,206.64 95.88,315.13 18.23,92.81 28.74,186.48 34.55,280.69 567.95,34.27 1136.58,49.68 1705.3,64.5 100.6,2.62 201.21,5.24 301.81,8 107.59,2.95 215.2,5.17 322.81,6.72 -46.24,-107.18 -96.66,-212.61 -151.69,-315.52 -90.5,-169.22 -194.01,-332.81 -312.99,-483.51 -9.67,-12.25 -19.82,-24.4 -29.99,-36.48 -25.91,1.4 -51.8,2.88 -77.7,4.44 -629.93,38.01 -1257.54,127.76 -1887.99,156.03zm-2854.91 113.25c383.84,125.48 780.43,216.18 1177.83,285.36 444.87,77.44 894.83,128.43 1344.81,164.76 85.94,6.94 171.93,13.33 257.95,19.25 -5.56,-76.62 -14.76,-152.82 -29.6,-228.35 -23.08,-117.49 -59.55,-230.89 -112.8,-338.28 -1.48,-2.98 -2.99,-5.96 -4.52,-8.94 -61.59,1.04 -123.19,1.22 -184.77,0.28 -423.34,-6.46 -848.48,-103.3 -1256.19,-211.05 -276.85,-73.16 -551.82,-154 -829.74,-222.99 -117.49,182.29 -239.22,361.86 -362.98,539.95zm1152.18 1977.89c64.98,-488.98 94.97,-981.17 95.8,-1474.39 -462.67,-76.14 -925.11,-179.76 -1369.68,-329.64 -96.52,137.02 -193.91,273.43 -291.3,409.83 -188.88,264.55 -378.06,529.13 -559.94,798.57 -161.44,239.16 -318.14,483.16 -459.29,735.02 269.87,12.64 545.24,-2.2 811.44,-39.89 308.35,-43.66 618.77,-79.19 929.63,-98.8 278.44,-17.57 564.41,-23.68 843.34,-0.68z"/>
 </g>
</svg>
